<svg width="15" height="15" viewBox="0 0 15 15" fill="none" xmlns="http://www.w3.org/2000/svg">
<g clip-path="url(#clip0_1656_1598)">
<path fill-rule="evenodd" clip-rule="evenodd" d="M1.18481 7.26517C1.18481 10.7951 3.69428 13.2002 6.51304 13.6977C6.58971 13.7113 6.66302 13.7401 6.72878 13.7825C6.79453 13.825 6.85144 13.8802 6.89626 13.9451C6.94108 14.01 6.97293 14.0832 6.99 14.1607C7.00706 14.2381 7.00901 14.3182 6.99572 14.3964C6.98243 14.4746 6.95417 14.5494 6.91255 14.6164C6.87092 14.6835 6.81676 14.7415 6.75315 14.7872C6.68953 14.833 6.61771 14.8654 6.54179 14.8828C6.46586 14.9002 6.38732 14.9022 6.31064 14.8887C3.00068 14.3042 0 11.4584 0 7.26517C0 5.4828 0.7948 4.08195 1.72263 3.0174C2.38781 2.25435 3.1485 1.63394 3.76023 1.15964H1.90002C1.74923 1.15964 1.60463 1.09856 1.49801 0.989818C1.39139 0.881081 1.33149 0.733601 1.33149 0.579822C1.33149 0.426044 1.39139 0.278564 1.49801 0.169826C1.60463 0.0610883 1.74923 0 1.90002 0H5.31117C5.46196 0 5.60656 0.0610883 5.71318 0.169826C5.8198 0.278564 5.8797 0.426044 5.8797 0.579822V4.05876C5.8797 4.21253 5.8198 4.36001 5.71318 4.46875C5.60656 4.57749 5.46196 4.63858 5.31117 4.63858C5.16039 4.63858 5.01578 4.57749 4.90916 4.46875C4.80255 4.36001 4.74265 4.21253 4.74265 4.05876V1.91805L4.74151 1.92037C4.09112 2.41902 3.29745 3.03015 2.60954 3.81987C1.79654 4.75222 1.18481 5.88056 1.18481 7.26517ZM13.8152 7.73483C13.8152 4.24198 11.3592 1.85195 8.57679 1.31852C8.49924 1.3051 8.42509 1.27606 8.35866 1.2331C8.29223 1.19015 8.23486 1.13413 8.18988 1.06832C8.14491 1.0025 8.11323 0.928217 8.0967 0.849787C8.08018 0.771358 8.07913 0.690358 8.09363 0.611512C8.10813 0.532666 8.13787 0.457554 8.18113 0.390558C8.22439 0.323561 8.2803 0.266022 8.3456 0.221296C8.4109 0.176571 8.48428 0.145556 8.56145 0.130059C8.63863 0.114563 8.71805 0.114896 8.7951 0.13104C12.063 0.757248 15 3.58678 15 7.73483C15 9.5172 14.2052 10.9169 13.2774 11.9826C12.6122 12.7457 11.8515 13.3661 11.2398 13.8404H13.1C13.2508 13.8404 13.3954 13.9014 13.502 14.0102C13.6086 14.1189 13.6685 14.2664 13.6685 14.4202C13.6685 14.574 13.6086 14.7214 13.502 14.8302C13.3954 14.9389 13.2508 15 13.1 15H9.68883C9.53804 15 9.39344 14.9389 9.28682 14.8302C9.1802 14.7214 9.1203 14.574 9.1203 14.4202V10.9412C9.1203 10.7875 9.1802 10.64 9.28682 10.5312C9.39344 10.4225 9.53804 10.3614 9.68883 10.3614C9.83961 10.3614 9.98422 10.4225 10.0908 10.5312C10.1975 10.64 10.2574 10.7875 10.2574 10.9412V13.0808H10.2596C10.9089 12.5798 11.7037 11.9698 12.3905 11.179C13.2035 10.2478 13.8152 9.1206 13.8152 7.73483Z" fill="#0095FF"/>
</g>
<defs>
<clipPath id="clip0_1656_1598">
<rect width="15" height="15" fill="white"/>
</clipPath>
</defs>
</svg>
